<svg xmlns="http://www.w3.org/2000/svg" version="1.1" xmlns:xlink="http://www.w3.org/1999/xlink" xmlns:svgjs="http://svgjs.com/svgjs" width="100%" height="512"><svg version="1.1" id="SvgjsSvg1000" xmlns="http://www.w3.org/2000/svg" xmlns:xlink="http://www.w3.org/1999/xlink" x="0px" y="0px" width="100%" viewBox="0 0 512 512" enable-background="new 0 0 512 512" xml:space="preserve">
<path fill="#020288" opacity="1.000000" stroke="none" d="
M365.000000,0.999997 
	C372.687592,1.000000 380.375153,1.000000 388.482849,1.364171 
	C389.508789,2.250152 390.033203,2.953590 390.732452,3.266996 
	C405.263733,9.779980 412.380615,20.940716 412.016052,36.890381 
	C411.911316,41.472446 412.000000,46.058926 412.000000,50.482410 
	C413.352356,50.755440 413.834564,50.936958 414.317139,50.938000 
	C428.973694,50.969593 443.644318,51.390266 458.282990,50.886684 
	C473.202728,50.373428 487.150482,64.791237 487.126831,79.576729 
	C486.910950,214.487167 487.007477,349.398071 486.986603,484.308868 
	C486.984833,495.772888 481.680511,504.128448 471.735107,509.713226 
	C470.320831,510.507416 469.236847,511.889832 468.000000,513.000000 
	C327.645782,513.000000 187.291550,513.000000 46.522823,512.642151 
	C44.628307,511.289459 43.208752,510.186737 41.658272,509.317627 
	C32.548100,504.210663 27.124371,496.348297 27.111729,486.057587 
	C26.944572,349.981140 26.992887,213.904434 27.011942,77.827797 
	C27.013824,64.384468 40.460533,51.044174 53.952297,51.008533 
	C68.109497,50.971138 82.266891,51.010345 96.424156,50.986660 
	C98.177162,50.983730 99.929871,50.800285 102.000114,50.682419 
	C102.000114,45.281742 102.144882,40.462086 101.972321,35.653820 
	C101.499733,22.485132 107.345413,12.857405 118.212814,5.893457 
	C120.557610,4.390886 122.741821,2.637732 125.000000,1.000000 
	C132.687576,1.000000 140.375168,1.000000 148.482819,1.364172 
	C149.647614,2.337915 150.302628,3.148311 151.150467,3.527074 
	C164.900269,9.669669 171.867355,20.239944 171.993271,35.295841 
	C172.035782,40.378147 172.000000,45.461102 172.000000,50.677685 
	C188.987091,50.677685 205.184952,50.677685 222.000031,50.677685 
	C222.000031,45.599129 222.169327,40.819916 221.967712,36.056396 
	C221.403748,22.731848 227.172195,12.925072 238.229858,5.884952 
	C240.573334,4.392924 242.747711,2.635267 245.000000,0.999997 
	C252.687576,1.000000 260.375153,1.000000 268.482849,1.364178 
	C269.647644,2.337938 270.302643,3.148337 271.150513,3.527114 
	C284.900330,9.669709 291.867310,20.240017 291.993256,35.295902 
	C292.035767,40.378212 292.000000,45.461174 292.000000,50.677681 
	C308.987122,50.677681 325.184967,50.677681 342.000000,50.677681 
	C342.000000,45.599125 342.169312,40.819916 341.967651,36.056408 
	C341.403564,22.731764 347.172455,12.925235 358.229858,5.884981 
	C360.573334,4.392897 362.747711,2.635270 365.000000,0.999997 
M467.000000,440.500000 
	C467.000000,344.118408 467.000000,247.736801 467.000000,151.389221 
	C326.557373,151.389221 187.021088,151.389221 47.000080,151.389221 
	C47.000080,153.402420 47.000080,155.038116 47.000080,156.673798 
	C47.000114,263.810638 46.994339,370.947479 47.008907,478.084320 
	C47.010414,489.155518 50.881504,492.991425 62.024158,492.992401 
	C191.987976,493.003998 321.951813,493.003418 451.915619,492.993378 
	C462.633209,492.992554 466.968933,488.659821 466.993408,477.989838 
	C467.021301,465.826630 466.999939,453.663269 467.000000,440.500000 
M47.000000,102.500153 
	C47.000000,111.907181 47.000000,121.314217 47.000000,130.592926 
	C187.488403,130.592926 327.019226,130.592926 466.949677,130.592926 
	C466.949677,114.390114 467.304504,98.579369 466.804016,82.795753 
	C466.543182,74.570786 462.690308,71.620224 454.348938,71.022949 
	C453.354065,70.951714 452.350311,71.000641 451.350677,71.000618 
	C423.526459,70.999893 395.702240,71.000046 367.878021,71.000046 
	C366.093201,71.000046 364.308380,71.000046 362.611450,71.000046 
	C361.514954,79.406914 364.424133,85.801712 371.005737,88.870880 
	C373.767609,90.158813 377.042145,90.352798 380.087677,91.025681 
	C384.904480,92.089897 387.182648,95.971252 387.018219,102.521538 
	C386.900177,107.224541 384.228424,110.155510 380.043488,110.870033 
	C365.100220,113.421432 348.570007,103.456825 344.017090,88.913231 
	C342.279388,83.362328 342.011688,77.351227 341.035431,71.311020 
	C308.351318,71.311020 275.449005,71.311020 242.025742,71.311020 
	C242.611649,78.132217 242.851669,84.740387 249.735687,88.052681 
	C252.918610,89.584160 256.581299,90.169762 260.069885,91.002289 
	C264.880066,92.150200 267.164886,95.946976 267.022095,102.498352 
	C266.919189,107.219231 264.234009,110.141373 260.065887,110.865852 
	C245.161209,113.456505 228.573456,103.469666 224.022095,88.935890 
	C222.283401,83.383751 222.013947,77.371498 221.032104,71.304230 
	C188.368790,71.304230 155.467285,71.304230 122.040970,71.304230 
	C122.590302,78.125145 122.847191,84.716087 129.718262,88.037491 
	C132.897690,89.574402 136.559006,90.167892 140.046951,91.000008 
	C144.745972,92.121063 147.116699,95.743637 146.999084,101.974754 
	C146.914322,106.465813 143.927872,110.362282 140.106918,110.967049 
	C125.191032,113.327896 108.576759,103.484955 104.027794,88.961555 
	C102.288292,83.407890 102.017311,77.394257 100.995239,71.084808 
	C87.009193,71.084808 72.702156,70.619331 58.444981,71.261261 
	C50.035912,71.639870 47.231998,75.680984 47.027706,84.506424 
	C46.896648,90.168228 47.001110,95.835472 47.000000,102.500153 
M142.301559,22.731491 
	C133.180038,20.531839 125.855278,23.302687 123.729935,31.077305 
	C122.039833,37.259781 122.183693,43.943607 121.486969,50.659126 
	C132.324997,50.659126 141.873764,50.659126 151.926498,50.659126 
	C151.676498,40.285839 154.223206,29.550495 142.301559,22.731491 
M271.991486,38.854218 
	C271.621155,36.582455 271.414948,34.269100 270.851562,32.046272 
	C268.642822,23.331816 257.420990,19.334702 249.598633,23.766302 
	C242.448456,27.817102 240.516998,40.657486 242.929413,50.581062 
	C252.503906,50.581062 262.047546,50.581062 271.998291,50.581062 
	C271.998291,46.702488 271.998291,43.238770 271.991486,38.854218 
M379.488281,51.000000 
	C383.550995,51.000000 387.613708,51.000000 392.446106,51.000000 
	C391.917145,44.640038 391.578461,39.233437 390.990662,33.854050 
	C390.323273,27.746452 386.408112,23.984726 380.945404,22.240103 
	C374.881958,20.303625 368.892792,22.840107 365.398682,28.034849 
	C360.692871,35.031029 362.148193,42.791336 362.201263,51.000000 
	C367.950500,51.000000 373.221436,51.000000 379.488281,51.000000 
z"></path>
<path fill="#000000" opacity="1.000000" stroke="none" d="
M468.468628,513.000000 
	C469.236847,511.889832 470.320831,510.507416 471.735107,509.713226 
	C481.680511,504.128448 486.984833,495.772888 486.986603,484.308868 
	C487.007477,349.398071 486.910950,214.487167 487.126831,79.576729 
	C487.150482,64.791237 473.202728,50.373428 458.282990,50.886684 
	C443.644318,51.390266 428.973694,50.969593 414.317139,50.938000 
	C413.834564,50.936958 413.352356,50.755440 412.000000,50.482410 
	C412.000000,46.058926 411.911316,41.472446 412.016052,36.890381 
	C412.380615,20.940716 405.263733,9.779980 390.732452,3.266996 
	C390.033203,2.953590 389.508789,2.250152 388.951477,1.364171 
	C430.306793,1.000000 471.613556,1.000000 512.954468,1.000000 
	C512.954468,171.666672 512.954468,342.333344 512.954468,513.000000 
	C498.251770,513.000000 483.594543,513.000000 468.468628,513.000000 
z"></path>
<path fill="#000000" opacity="1.000000" stroke="none" d="
M124.531342,1.000000 
	C122.741821,2.637732 120.557610,4.390886 118.212814,5.893457 
	C107.345413,12.857405 101.499733,22.485132 101.972321,35.653820 
	C102.144882,40.462086 102.000114,45.281742 102.000114,50.682419 
	C99.929871,50.800285 98.177162,50.983730 96.424156,50.986660 
	C82.266891,51.010345 68.109497,50.971138 53.952297,51.008533 
	C40.460533,51.044174 27.013824,64.384468 27.011942,77.827797 
	C26.992887,213.904434 26.944572,349.981140 27.111729,486.057587 
	C27.124371,496.348297 32.548100,504.210663 41.658272,509.317627 
	C43.208752,510.186737 44.628307,511.289459 46.054165,512.642151 
	C31.009642,513.000000 16.019281,513.000000 1.021692,513.000000 
	C1.014461,342.452667 1.014461,171.905334 1.014461,1.000000 
	C42.020199,1.000000 83.041443,1.000000 124.531342,1.000000 
z"></path>
<path fill="#000000" opacity="1.000000" stroke="none" d="
M244.531342,0.999997 
	C242.747711,2.635267 240.573334,4.392924 238.229858,5.884952 
	C227.172195,12.925072 221.403748,22.731848 221.967712,36.056396 
	C222.169327,40.819916 222.000031,45.599129 222.000031,50.677685 
	C205.184952,50.677685 188.987091,50.677685 172.000000,50.677685 
	C172.000000,45.461102 172.035782,40.378147 171.993271,35.295841 
	C171.867355,20.239944 164.900269,9.669669 151.150467,3.527074 
	C150.302628,3.148311 149.647614,2.337915 148.951447,1.364172 
	C180.687561,1.000000 212.375122,1.000000 244.531342,0.999997 
z"></path>
<path fill="#000000" opacity="1.000000" stroke="none" d="
M364.531342,0.999997 
	C362.747711,2.635270 360.573334,4.392897 358.229858,5.884981 
	C347.172455,12.925235 341.403564,22.731764 341.967651,36.056408 
	C342.169312,40.819916 342.000000,45.599125 342.000000,50.677681 
	C325.184967,50.677681 308.987122,50.677681 292.000000,50.677681 
	C292.000000,45.461174 292.035767,40.378212 291.993256,35.295902 
	C291.867310,20.240017 284.900330,9.669709 271.150513,3.527114 
	C270.302643,3.148337 269.647644,2.337938 268.951477,1.364178 
	C300.687561,1.000000 332.375122,1.000000 364.531342,0.999997 
z"></path>
<path fill="#000000" opacity="1.000000" stroke="none" d="
M467.000000,441.000000 
	C466.999939,453.663269 467.021301,465.826630 466.993408,477.989838 
	C466.968933,488.659821 462.633209,492.992554 451.915619,492.993378 
	C321.951813,493.003418 191.987976,493.003998 62.024158,492.992401 
	C50.881504,492.991425 47.010414,489.155518 47.008907,478.084320 
	C46.994339,370.947479 47.000114,263.810638 47.000080,156.673798 
	C47.000080,155.038116 47.000080,153.402420 47.000080,151.389221 
	C187.021088,151.389221 326.557373,151.389221 467.000000,151.389221 
	C467.000000,247.736801 467.000000,344.118408 467.000000,441.000000 
M292.500000,453.000183 
	C337.253204,453.000183 382.006409,453.000183 426.696655,453.000183 
	C426.696655,365.344452 426.696655,278.290588 426.696655,191.300507 
	C313.342773,191.300507 200.292679,191.300507 87.303268,191.300507 
	C87.303268,278.655426 87.303268,365.709290 87.303268,453.000183 
	C155.570999,453.000183 223.535492,453.000183 292.500000,453.000183 
z"></path>
<path fill="#000000" opacity="1.000000" stroke="none" d="
M47.000000,102.000214 
	C47.001110,95.835472 46.896648,90.168228 47.027706,84.506424 
	C47.231998,75.680984 50.035912,71.639870 58.444981,71.261261 
	C72.702156,70.619331 87.009193,71.084808 100.995239,71.084808 
	C102.017311,77.394257 102.288292,83.407890 104.027794,88.961555 
	C108.576759,103.484955 125.191032,113.327896 140.106918,110.967049 
	C143.927872,110.362282 146.914322,106.465813 146.999084,101.974754 
	C147.116699,95.743637 144.745972,92.121063 140.046951,91.000008 
	C136.559006,90.167892 132.897690,89.574402 129.718262,88.037491 
	C122.847191,84.716087 122.590302,78.125145 122.040970,71.304230 
	C155.467285,71.304230 188.368790,71.304230 221.032104,71.304230 
	C222.013947,77.371498 222.283401,83.383751 224.022095,88.935890 
	C228.573456,103.469666 245.161209,113.456505 260.065887,110.865852 
	C264.234009,110.141373 266.919189,107.219231 267.022095,102.498352 
	C267.164886,95.946976 264.880066,92.150200 260.069885,91.002289 
	C256.581299,90.169762 252.918610,89.584160 249.735687,88.052681 
	C242.851669,84.740387 242.611649,78.132217 242.025742,71.311020 
	C275.449005,71.311020 308.351318,71.311020 341.035431,71.311020 
	C342.011688,77.351227 342.279388,83.362328 344.017090,88.913231 
	C348.570007,103.456825 365.100220,113.421432 380.043488,110.870033 
	C384.228424,110.155510 386.900177,107.224541 387.018219,102.521538 
	C387.182648,95.971252 384.904480,92.089897 380.087677,91.025681 
	C377.042145,90.352798 373.767609,90.158813 371.005737,88.870880 
	C364.424133,85.801712 361.514954,79.406914 362.611450,71.000046 
	C364.308380,71.000046 366.093201,71.000046 367.878021,71.000046 
	C395.702240,71.000046 423.526459,70.999893 451.350677,71.000618 
	C452.350311,71.000641 453.354065,70.951714 454.348938,71.022949 
	C462.690308,71.620224 466.543182,74.570786 466.804016,82.795753 
	C467.304504,98.579369 466.949677,114.390114 466.949677,130.592926 
	C327.019226,130.592926 187.488403,130.592926 47.000000,130.592926 
	C47.000000,121.314217 47.000000,111.907181 47.000000,102.000214 
z"></path>
<path fill="#000000" opacity="1.000000" stroke="none" d="
M142.671616,22.880653 
	C154.223206,29.550495 151.676498,40.285839 151.926498,50.659126 
	C141.873764,50.659126 132.324997,50.659126 121.486969,50.659126 
	C122.183693,43.943607 122.039833,37.259781 123.729935,31.077305 
	C125.855278,23.302687 133.180038,20.531839 142.671616,22.880653 
z"></path>
<path fill="#000000" opacity="1.000000" stroke="none" d="
M271.994873,39.314636 
	C271.998291,43.238770 271.998291,46.702488 271.998291,50.581062 
	C262.047546,50.581062 252.503906,50.581062 242.929413,50.581062 
	C240.516998,40.657486 242.448456,27.817102 249.598633,23.766302 
	C257.420990,19.334702 268.642822,23.331816 270.851562,32.046272 
	C271.414948,34.269100 271.621155,36.582455 271.994873,39.314636 
z"></path>
<path fill="#000000" opacity="1.000000" stroke="none" d="
M378.990326,51.000000 
	C373.221436,51.000000 367.950500,51.000000 362.201263,51.000000 
	C362.148193,42.791336 360.692871,35.031029 365.398682,28.034849 
	C368.892792,22.840107 374.881958,20.303625 380.945404,22.240103 
	C386.408112,23.984726 390.323273,27.746452 390.990662,33.854050 
	C391.578461,39.233437 391.917145,44.640038 392.446106,51.000000 
	C387.613708,51.000000 383.550995,51.000000 378.990326,51.000000 
z"></path>
<path fill="#A4FBC4" opacity="1.000000" stroke="none" d="
M292.000000,453.000183 
	C223.535492,453.000183 155.570999,453.000183 87.303268,453.000183 
	C87.303268,365.709290 87.303268,278.655426 87.303268,191.300507 
	C200.292679,191.300507 313.342773,191.300507 426.696655,191.300507 
	C426.696655,278.290588 426.696655,365.344452 426.696655,453.000183 
	C382.006409,453.000183 337.253204,453.000183 292.000000,453.000183 
M238.343063,312.973511 
	C237.056030,312.024353 235.644318,311.204224 234.504272,310.102905 
	C230.310471,306.051605 226.357086,301.741180 222.041138,297.828369 
	C208.753784,285.782227 188.879013,286.343506 176.468750,298.964508 
	C164.030746,311.613739 163.630157,331.577576 176.080490,344.507965 
	C189.021957,357.948486 202.206009,371.172821 215.680603,384.077515 
	C228.204300,396.071503 247.684479,396.312561 260.048096,384.211609 
	C286.362885,358.455841 312.365387,332.374939 338.164734,306.102112 
	C346.871124,297.235901 349.104370,286.063873 345.425476,274.115997 
	C338.102448,250.333252 308.723419,243.272400 290.608459,261.035889 
	C273.239624,278.067688 256.159943,295.394379 238.343063,312.973511 
z"></path>
<path fill="#030489" opacity="1.000000" stroke="none" d="
M238.648132,312.782471 
	C256.159943,295.394379 273.239624,278.067688 290.608459,261.035889 
	C308.723419,243.272400 338.102448,250.333252 345.425476,274.115997 
	C349.104370,286.063873 346.871124,297.235901 338.164734,306.102112 
	C312.365387,332.374939 286.362885,358.455841 260.048096,384.211609 
	C247.684479,396.312561 228.204300,396.071503 215.680603,384.077515 
	C202.206009,371.172821 189.021957,357.948486 176.080490,344.507965 
	C163.630157,331.577576 164.030746,311.613739 176.468750,298.964508 
	C188.879013,286.343506 208.753784,285.782227 222.041138,297.828369 
	C226.357086,301.741180 230.310471,306.051605 234.504272,310.102905 
	C235.644318,311.204224 237.056030,312.024353 238.648132,312.782471 
M309.024872,272.155579 
	C306.824524,273.907379 304.435272,275.469238 302.453278,277.440552 
	C283.797455,295.996063 265.224426,314.634796 246.597168,333.219116 
	C240.491745,339.310455 235.507339,339.337372 229.432816,333.342651 
	C222.676514,326.675079 216.087021,319.835419 209.234604,313.269287 
	C203.524979,307.798187 196.057465,307.768616 190.893631,312.844360 
	C185.606979,318.040894 185.606628,325.785919 191.278748,331.546082 
	C203.547348,344.005066 215.915237,356.368256 228.372482,368.638672 
	C234.317764,374.494781 241.504791,374.629059 247.439957,368.737427 
	C272.614258,343.747650 297.674286,318.642365 322.691986,293.495636 
	C327.679138,288.482758 328.316864,282.472046 324.988098,277.125610 
	C321.797821,272.001587 316.419647,270.157715 309.024872,272.155579 
z"></path>
<path fill="#A1F7C3" opacity="1.000000" stroke="none" d="
M309.394836,272.030975 
	C316.419647,270.157715 321.797821,272.001587 324.988098,277.125610 
	C328.316864,282.472046 327.679138,288.482758 322.691986,293.495636 
	C297.674286,318.642365 272.614258,343.747650 247.439957,368.737427 
	C241.504791,374.629059 234.317764,374.494781 228.372482,368.638672 
	C215.915237,356.368256 203.547348,344.005066 191.278748,331.546082 
	C185.606628,325.785919 185.606979,318.040894 190.893631,312.844360 
	C196.057465,307.768616 203.524979,307.798187 209.234604,313.269287 
	C216.087021,319.835419 222.676514,326.675079 229.432816,333.342651 
	C235.507339,339.337372 240.491745,339.310455 246.597168,333.219116 
	C265.224426,314.634796 283.797455,295.996063 302.453278,277.440552 
	C304.435272,275.469238 306.824524,273.907379 309.394836,272.030975 
z"></path>
</svg><style>@media (prefers-color-scheme: light) { :root { filter: none; } }
</style></svg>